<?xml version="1.0" encoding="UTF-8"?>
<svg version="1.1" viewBox="0 0 2048 1395" width="1280" height="1280" xmlns="http://www.w3.org/2000/svg">
<path transform="translate(1971,493)" d="m0 0h7l5 5v23l-4 11-8 15-14 19-9 12-11 12-14 12-10 9-4 8 1 4 3 11 5 24 5 8 7 4h13l8-4 10-11 7-8h3l1 3-4 9-7 9-6 7-10 5-11 1-14-1-8-3v24l-3 20-5 15-8 15-7 9-7 7-5 2h-12l-7-6-4-9v-15l4-24 7-31-1-1-7 6-18 10-16 6-11 2h-7l-8-3-9-7-5-8-6-11-7 8-14 10-9 3-15 1-6-3-6-7-2-10 2-16 4-17v-14l-5-3h-7l-6 4-9 14-24 49-5 6-3 1-8-7-5-11-3-11-15 16-7 7-16 11-16 7-14 3h-14l-12-4-10-6-10-10-8-14-4-9-3-13-1-9v-13l2-15 5-21 8-21 8-16 6-11 11-16 13-15 12-12 15-11 13-6 12-3h18l11 4 7 8 3 9-1 17-4 12-6 12-8 12-5 6-4 2-9 1-7-2-1-4 7-11 9-13 9-19 3-13-1-5-3-3-9-1-12 3-10 6-13 12-10 11-10 15-9 16-7 14-10 26-5 20-2 15v18l3 15 4 10 9 10 12 6 4 1h10l12-3 16-8 13-9 13-12 7-10 6-13 9-31 11-30 11-26 12-24 12-20 10-14 8-7 7-1 7 2 5 7v13l-4 17-5 13-6 12-10 17-12 17-9 11-8 7-5 5-5 8-7 21-2 14v10l13-27 9-15 11-12 10-6 5-1h9l10 4 6 5 4 7v18l-6 20-4 12v9l1 4h10l8-4 13-11 6-12 6-15 9-17 10-13 11-11 10-7 12-5 13-2 11 3 7 8 1 3v11l-4 11-6 9-10 10-11 7-16 6-16 5-5 3-1 2 1 11 4 8 6 6 5 1 12-2 18-8 14-10 6-6h2l2-5 8-16 13-34 6-16 16-35 8-16 9-16 13-18 9-9 10-7zm-4 23-9 7-10 14-13 24-13 26 1 2 11-13 11-12 16-24 6-10 3-7v-7zm-231 5m-1 1 1 2zm-1 2-5 5-5 4-12 18-10 17-11 25-2 10 4-2 14-22 12-20 14-26 2-9zm187 65m-77 14-13 8-9 9-10 14-8 14-3 7 4-2 19-8 13-10 10-10 4-8 1-6-3-7zm53 47-3 5-8 25-7 27-4 17-2 16v7l2 4 7-1 7-8 5-12 6-18 2-11 1-13v-19l-2-14-2-5z" fill="#7C8F80"/>
<path transform="translate(652,477)" d="m0 0 4 2 1 10v65l-1 46-1 10-2 4-5 2-8 1h-51l-29-2-24-3 9 15 7 21 1 4v25l-3 20-5 23-10 35-12 36-14 38-13 33-17 41-19 44-6 12-2 2-7 1-5-1-6 2-4 16-7 25v10l16 8 8 5 3 7v3l-8 1-31-6-35-9-14-4-2-2 1-10 7-31 5-19v-3l-53-4h-15l-9 8-11 14-14 18-13 16-8 10-15 6-43 14-10 3h-6l-2-2v-6l5-5 12-4 17-4 4-19 11-60 1-3 69 2 61 2 76 3 3-3 11-23 12-25 13-28 19-45 13-35 11-33 9-36 3-21 1-13v-13l-3-19-5-15-10-19-10-13-11-11-14-11-15-10-14-8-17-8v-3l5-3h18l10 4 16 8 16 10 12 9 10 5 40 5 59 6 22 1 1-9 11-66z" fill="#798C7C"/>
<path transform="translate(572,277)" d="m0 0h33l12 3 10 3 25 3 3 2-7 3-5 1-8-2h-7l3 11 4 2 5 1 5 8-2 5-7 2h-11l-14-3-29-9-7-3-3-5 5-3 4-1h14l9 1 7 1-3-6-4-4-17 1-40 8-13 5-10 7-3 5 3 6 10 9 23 13 15 8 36 12 45 11 44 7 29 3 52 2 33-2 22-4 13-4 5-4 1-6-6-10-8-7-12-6-9-1-7 6-8 3h-8l-6-3-5-11 2-4-1-6-8-4-19-7-7-3-2 2 1 4-6 7-2-1 3-5h-12l-10-7-7-4-6-7-4-9h9l12 2 5 5 1 6-4 1 1 3 5-1 2-4 5 2-1-3 2-4 3-2 10 1 25 7 31 12 22 8 19 10 11 8 10 9 8 10 3 7v11l-4 8-8 7-13 5-24 4-25 2h-62l-33-3-37-4v1l-10 2-8 2-24 3h-7l1-7 3-3 11-2 16 1 10 1-43-9-28-7h-6l6 9 8 17 6 12 1 7-9-2-6-1-3 10-6 29-7 48-6 28-4 9-2 2h-11l-18-3-36-12-21-9-26-12-15-8-9-7-6-9-3-5 1-5 6-2 12 4 81 34 29 11 9-21 12-36 13-43 3-6-1-11-6-21-3-10-6-4-32-12-25-12-15-10-10-9-7-7-7-14 1-6 9-7 10-5 17-5 35-6z" fill="#7C9080"/>
<path transform="translate(355,345)" d="m0 0h11l8 7 9 9 13 24 10 14 9 12 6 10 4 6 6 1 10-9 7-8 6-12-2-10-5-7 3-1 11 7 5 6 1 3v9l-4 12-8 11-9 9-13 6-9 3-3 15-8 16-10 14-10 9-12 5-17 4-21 3-13 1h-23l-9-2-9-6-12-13-7-8-4-2-16 3-5 3-2 5v7l-3 4-36 9-16 6-16 9-10 8-7 7-8 14-5 15-6 29-7 44-11 80-4 31-7 42-2 5h-1l-1-26-1-52v-77l1-33 3-29 6-28 6-16 8-12 8-10 7-7 13-9 15-8 25-9 12-4h3v-2l-6-2-10-6-10-10-1-6 10-15 5-6 4-1-2 9-2 7v6l9 6 22 6 5 1h15l12-2 2-1-1-7-4-6-5-3-34-1-7-3-2-7v-11l3-11 6-5 3 4 4 10 3 2h9l10-3 4-2 7 1 6 5 8 16 5 11 3 3 11-7 18-14 15-10 30-15 6-4 4-9 4-6 4-1 2 3 1 16 3 6 17 8 10 3-3-10-7-10-12-16-7-10-7-1-14 3-1-1v-6l2-3 16-2 3-3-2-13-4-3-4-1h-16l-3 2-1-5 5-5zm-1 82-9 9-13 10-6 7-15 8-16 8-5 3 1 6 3 5 11 9 6 2 7 1h27l19-2 14-4 10-5 7-7 7-11 2-8v-9l-5-3-17-5-14-3-5-2-2-4-5-5z" fill="#798D7D"/>
<path transform="translate(1307,495)" d="m0 0 6 1 5 5 2 5v13l-4 17-4 12-8 16-11 18-8 11-8 10-10 8-6 7-6 12-7 21-3 20v9l3 14 3 3 6 2 10-1 8-4 8-9 1-4-4-8-8-10-5-11-1-9 2-10 6-12 8-8 9-2 10 4 6 7 3 7v20l-5 25-4 10-18 18-10 7-12 4-12 1-10-3-8-7-6-10-5-14v-2l-5 5-6 7-10 7-9 3-5 1h-13l-6-4-4-9-3-6-10 9-7 7-14 7-7 2-8-1-6-4-6-9-2-13 4-18 6-15 12-18 12-13 12-10 14-7 8-2h17l10 4 6 5 4 9-1 8-6 12-4 13-10 22-1 3v13l3 2h10l7-4 11-9 6-8 18-54 15-37 8-17 11-20 14-22 9-11 9-9zm-2 31-7 7-11 18-12 23-9 23-1 4 4-2 10-14 9-15 12-22 6-17v-5zm-135 81-10 5-13 13-10 13-9 16-6 15-1 5v11l3 5 2 1h6l8-4 10-9 8-8 15-22 9-10 5-7 1-3v-11l-4-7-5-3zm118 21-7 6-2 6v9l4 12 6 6h3l2-4 1-20-1-11-2-4z" fill="#7D9080"/>
<path transform="translate(271,218)" d="m0 0h24l53 6 37 2 13 2 11 4 9 6 4 5 2 4v13l-5 15-7 13-11 13-7 6-5-1-5-6 1-5 4-6 7-10 3-7v-10l-5-10-8-6-8-3h-12l-14 7-7 4-6-1-21-7-12-2h-34l-12 3-9 5-6 5h-2l-2 4-8 7-19 2-15 6-16 12-7 8-10 15-7 17-2 9v21l4 12 7 11 10 6 7 3h12l18-7 6-6h2l-1 5-9 14-7 9-7 3-6 1h-15l-12-2-12-5-10-9-8-10-8-17-3-10-1-7v-19l3-15 5-15 6-12 10-13 14-11 16-8 12-4 24-4 13-2 10-9 11-9 16-8z" fill="#798D7D"/>
<path transform="translate(1021,493)" d="m0 0 32 1 14 3 12 6 7 6 6 9 4 13v13l-2 9-6 12-10 11-11 8-13 6-4 1 20 6 11 7 9 9 4 8 2 13-1 15-5 13-9 12-12 12-15 10-17 8-26 8-24 5-7 1h-15l-10-4-9-9-2-4v-7l1-1h20l17 1 20-2 21-5 13-5 15-8 13-10 10-11 6-13v-13l-3-7-6-8-10-6-11-5-10-2-18-1h-28l-4 11-7 23-11 40-3 11-2 4-6-2-11-8 1-11 7-25 12-36 13-37 6-15 14-34 4-10v-2l-14 4-13 6-6 2h-5l-1-1 1-7 8-7 11-5 19-4zm11 9-4 2-8 16-10 24-12 34-2 10 19-1 17-3 14-5 11-6 10-9 6-9 3-9 1-13-2-10-5-9-7-6-10-4-11-2z" fill="#7C9080"/>
<path transform="translate(1971,493)" d="m0 0h7l5 5v23l-4 11-8 15-14 19-9 12-11 12-14 12-10 9-4 8 1 4 3 11 5 24 5 8 7 4h13l8-4 10-11 7-8h3l1 3-4 9-7 9-6 7-10 5-11 1-14-1-8-3v24l-3 20-5 15-8 15-7 9-7 7-5 2h-12l-7-6-4-9v-15l4-24 7-31-1-1-7 6-18 10-16 6-9 1 1-2h2l-1-7-2-1 1-1 12-2 18-8 14-10 6-6h2l2-5 8-16 13-34 6-16 16-35 8-16 9-16 13-18 9-9 10-7zm-4 23-9 7-10 14-13 24-13 26 1 2 11-13 11-12 16-24 6-10 3-7v-7zm-46 73m-24 61-3 5-8 25-7 27-4 17-2 16v7l2 4 7-1 7-8 5-12 6-18 2-11 1-13v-19l-2-14-2-5z" fill="#7B8E7F"/>
<path transform="translate(1624,494)" d="m0 0h18l11 4 7 8 3 9-1 17-4 12-6 12-8 12-5 6-4 2-9 1-7-2-1-4 7-11 9-13 9-19 3-13-1-5-3-3-9-1-12 3-10 6-13 12-10 11-10 15-9 16-7 14-10 26-5 20-2 15v18l3 15 4 10 9 10 12 6 4 1v2l4 1 1 8-1 2-4 1h-14l-12-5-8-6-8-8-8-14-4-9-3-13-1-9v-13l2-15 5-21 8-21 8-16 6-11 11-16 13-15 12-12 15-11 13-6z" fill="#7A8E7E"/>
<path transform="translate(355,345)" d="m0 0h11l8 7 9 9 13 24 10 14 9 12 6 10 4 6 6 1 10-9 7-8 6-12-2-10-5-7 3-1 11 7 5 6 1 3v9l-4 12-8 11-9 9-13 6-9 3-3 15-8 16-10 14-10 9-12 5-17 4-21 3-13 1h-23l-9-2-9-6-12-13-7-8-2-3 9 1h12l5-2v2l4 2 7 6 6 2 7 1h27l19-2 14-4 10-5 8-9 5-8 2-8v-9l-10-4-16-4-9-2-5-3-7-8-4 2-7 7-5 4-2-1 4-4 3-7-2-4-6-1 3-2 14-7 6-4 4-9 4-6 4-1 2 3 1 16 3 6 17 8 10 3-3-10-7-10-12-16-7-10-7-1-14 3-1-1v-6l2-3 16-2 3-3-2-13-4-3-4-1h-16l-3 2-1-5 5-5z" fill="#7A8E7E"/>
<path transform="translate(404,552)" d="m0 0h5l8 5 1 4-3 4-36 5-51 5-5 1 9 21 6 16 5 23 1 10v29l-2 18-5 21-5 15-12 25-15 24-10 14-14 19-10 13-14 17-13 14h-2l2-6 12-19 16-26 12-22 8-16 10-24 9-27 7-29 3-22v-35l-3-18-5-15-9-19-9-14v-5l56-2 45-3z" fill="#7A8E7E"/>
<path transform="translate(245,593)" d="m0 0h5l-2 9-4 13-20 79-20 77-11 41-10 40-8 29-2 3-26-1-12-4 5-5 18-4 2-1 6-21 11-48 15-71 15-74 11-53 2-4z" fill="#798D7D"/>
<path transform="translate(1362,607)" d="m0 0 10 1 3 3-11 30-5 15-1 4v14l5 3 9-1 13-11 6-5 7-14 8-21 4-6 4-3 9 1 4 3-1 8-11 37-11 31 4-5 13-9 15-15 7-8 6-7 6-1-1 5-10 13-16 16-11 9-11 7-5 3-8 18-10 19-12 16-7 7-10 5h-14l-9-6-4-7 1-8 7-13 12-11 17-11 12-6h2v3l8-16 8-20v-5l-8 7-9 7-5 5-12 3-9-1-9-6-8-9-8 1-9 4-8 4-5-1 2-5 8-5 12-5 5-4 6-14 8-22 7-14 6-6zm14 104 1 2zm-1 2-16 12-9 8-8 10-4 7v3l6 3h6l6-4 9-12 9-16 2-8z" fill="#7C8F80"/>
<path transform="translate(1167,597)" d="m0 0h17l10 4 6 5 4 9-1 8-6 12-4 13-10 22-1 3v13l3 2h10l7-4 11-9 5-5 1 8-8 10-10 8-11 4-5 1h-13l-6-4-4-9-3-6-10 9-7 7-14 7-7 2-8-1-6-4-6-9-2-13 4-18 6-15 12-18 12-13 12-10 14-7zm3 10-10 5-13 13-10 13-9 16-6 15-1 5v11l3 5 2 1h6l8-4 10-9 8-8 15-22 9-10 5-7 1-3v-11l-4-7-5-3z" fill="#7C8F80"/>
<path transform="translate(592,424)" d="m0 0 3 1-1 16-5 27-6 41-6 28-4 9-2 2h-11l-18-3-36-12-21-9-26-12-15-8-9-7-6-9-3-5 1-5 6-2 12 4 81 34 29 11 9-21 12-36 11-36h2l2-7z" fill="#788C7C"/>
<path transform="translate(1847,591)" d="m0 0 10 2 5 3 5 6 1 3v11l-4 11-6 9-10 10-11 7-16 6-16 5-5 3-1 2 1 11 4 8 6 6 6 3 1 7-5 3h-7l-8-3-9-7-5-8-6-11h-3l-1-6 6-14 7-16 9-16 9-11 10-10 10-7 12-5zm-3 12-13 8-9 9-10 14-8 14-3 7 4-2 19-8 13-10 10-10 4-8 1-6-3-7z" fill="#7C8F80"/>
<path transform="translate(111,895)" d="m0 0h2v9l-1 7v24l3 7 6 7 4-2 8-11 7-6 12-6 1-3-3-6-1-8 2-9 1-1 7 1 5 4 7 8 7 6 8 7v10l-5 10-8 5-7 1-19-3-5 8-9 23-4 5-6 1-5-5-5-11-2 11-1 1h-6l-2-1-1-23v-19l1-22 2-12 5-6z" fill="#FCFCFC"/>
<path transform="translate(404,449)" d="m0 0 12 3 6-2v9l-8 18-12 16-9 8-12 5-17 4-21 3-13 1h-23l-9-2-9-6-12-13-7-8-2-3 9 1h12l5-2v2l4 2 7 6 6 2 7 1h27l19-2 14-4 10-5 8-9 5-8 2-8z" fill="#FEFEFE"/>
<path transform="translate(1289,611)" d="m0 0 8 2 6 4 6 9 1 3v20l-5 25-4 10-18 18-10 7-10 3 2-9-8-2v-1l12-3 7-4 7-8 1-4-4-8-8-10-5-11-1-9 2-10 6-12 8-8zm-1 17-7 6-2 6v9l4 12 6 6h3l2-4 1-20-1-11-2-4z" fill="#7E9182"/>
<path transform="translate(1362,607)" d="m0 0 10 1 3 3-11 30-5 15-1 4v14l5 3 9-1 13-11 2 3 1 2 3 1-12 11-7 6-12 3-9-1-9-6-8-9-8 1-9 4-8 4-5-1 2-5 8-5 12-5 5-4 6-14 8-22 7-14 6-6z" fill="#7C9080"/>
<path transform="translate(572,277)" d="m0 0h33l12 3 10 3 25 3 3 2-7 3-5 1-8-2h-7l3 11 4 2 5 1 5 8-2 5-7 2h-11l-14-3-29-9-7-3-3-5 5-3 4-1h14l9 1 7 1-3-6-4-4-17 1-40 8-11 4-2-1 8-7 5-1 2-4h9v-2l-9-1h-16v-1z" fill="#FEFEFE"/>
<path transform="translate(336,320)" d="m0 0h12l17 2 12 6 2 2-1 5-34 1-34 3-22 4-27 8-19 5h-10l-1-5 4-4 29-12 19-6 21-5 19-3z" fill="#7B8E7F"/>
<path transform="translate(705,291)" d="m0 0h9l12 2 5 5 1 6-4 1 1 3 5-1 2-4 5 2-1-3 2-4 3-2 10 1 25 7 31 12 14 5v1l-17 1h-9l-8 5-2-1v8h2l3 4v2h2l2 2 2 1 14-2-4 4-8 3h-8l-6-3-5-11 2-4-1-6-8-4-19-7-7-3-2 2 1 4-6 7-2-1 3-5h-12l-10-7-7-4-6-7z" fill="#FDFDFD"/>
<path transform="translate(217,414)" d="m0 0 4 4 4 10 3 2h9l10-3 4-2 7 1 6 5 8 16 5 12-8 3-6 3-5-9-6-4-34-1-7-3-2-7v-11l3-11z" fill="#FEFEFE"/>
<path transform="translate(355,345)" d="m0 0h11l8 7 9 9 13 24 10 14 9 12 6 10 2 5h-19l-5-10-14-18-8-12-5-2-12 2-5 1-1-1v-6l2-3 16-2 3-3-2-13-4-3-4-1h-16l-3 2-1-5 5-5z" fill="#FEFEFE"/>
<path transform="translate(351,286)" d="m0 0h14l2 3v7l-2 4-56 8-28 6-17 5-21 8-7 4v-3l13-8 23-12 24-9 26-8 21-4z" fill="#7D9081"/>
<path transform="translate(682,304)" d="m0 0 4 1 11 9 3 5 3 15 11 12 6 8 4 5 1 6-4 2-7-1-6-5-11-16-1-4 2-5 2-1-12-2-18-8-4-4 3-6 9-8z" fill="#FEFEFE"/>
<path transform="translate(703,407)" d="m0 0 5 1-4 6-10 8-11 5-14 3-25 2-13-1-2-2v-7l3-6 4-1 48-1 10-2z" fill="#FEFEFE"/>
<path transform="translate(1646,665)" d="m0 0h1l1 11-14 15-7 7-16 11-16 7-14 3h-14v-1l14-1-1-10-3-2 16-2 13-5 11-6 12-9 12-11z" fill="#FEFEFE"/>
<path transform="translate(1902,662)" d="m0 0 3 4 6 11 1 1v23l-3 20-5 15-8 15-7 9-7 7-2-1 6-8 6-14 5-7 1-9-3-2 3-10 3-15 1-13z" fill="#F9FAFA"/>
<path transform="translate(585,378)" d="m0 0 4 1 5 2 6 10 8 16 6 14v4l-9-2-6-1-3 10-2 4v-11h-2l-3 7-1-4 4-9-1-11-6-21-1-8z" fill="#FEFEFE"/>
<path transform="translate(563,319)" d="m0 0 9 2 11 4 3 4v6l-4 5-9 3-16-3-3-3v-9l4-6z" fill="#FDFDFD"/>
<path transform="translate(730,333)" d="m0 0 5 1 2 1 14 2 28 10 8 3 2 4 6 1 12 6v3l-1 1-9-1-9-6-17-4-23-9-16-7-2-2z" fill="#FEFEFE"/>
<path transform="translate(1865,669)" d="m0 0h2v10h-2l-1 4-7 6-18 10-16 6-9 1 1-2h2l-1-7-2-1 1-1 12-2 18-8 14-10z" fill="#FBFBFB"/>
<path transform="translate(285,351)" d="m0 0h8l6 3 6 7 2 6-5-1-9-5-8-1-9 6-5 10v6l4 6-1 2-11-10-2-3 1-9 5-8 9-6z" fill="#839586"/>
<path transform="translate(666,285)" d="m0 0 12 1 5 3-1 5-8 4-12 4-8 7-5 3-4-2-2-5 3-7 5-5 3-1 2-4 1 3 3-1 3-4z" fill="#FDFDFD"/>
<path transform="translate(650,329)" d="m0 0 7 1 2 2-1 5-5 4-14 5-3 1h-19l-5-2 1-5 8-4 23-5z" fill="#FEFEFE"/>
<path transform="translate(369,395)" d="m0 0 4 1 1 2 1 16 3 6 4 3-11-2h-15l-4 1 1 3 3 2-16 14-2-1 4-4 3-7-2-4-6-1 3-2 14-7 6-4 4-9 4-6z" fill="#FEFEFE"/>
<path transform="translate(744,357)" d="m0 0h15l10 3 5 4 4 7v3l-6 2h-13l-8-3-5-4-3-5v-6z" fill="#FEFEFE"/>
<path transform="translate(1007,495)" d="m0 0h6v2l-7 1 2 4 1 3-2 2-14 4-13 6-6 2h-5l-1-1 1-7 8-7 11-5z" fill="#FDFDFD"/>
<path transform="translate(1376,707)" d="m0 0h2l-2 6-18 14-7 6-8 10-3 5-5-5h-2l-3 6v6l1 4-1 2-3-5 1-8 7-13 12-11 17-11z" fill="#FEFEFE"/>
<path transform="translate(1451,651)" d="m0 0h4l-1 5-10 13-16 16-11 9-11 7-3 1-1-4 8-8 12-9 14-14 7-8 6-7z" fill="#FEFEFE"/>
<path transform="translate(661,349)" d="m0 0 7 1 11 7 6 7v3h-15l-16-3-4-4 1-4 6-5z" fill="#7B8E7F"/>
<path transform="translate(1968,647)" d="m0 0h3l1 3-4 9-7 9-6 7-10 5-11 1h-6l2-2 5-2 1-4-4-2 11-1 8-4 10-11z" fill="#FEFEFE"/>
<path transform="translate(354,445)" d="m0 0h11l7 3 2 3v3l-5 2-30 2-8-2v-2l6-4z" fill="#FEFEFE"/>
<path transform="translate(644,394)" d="m0 0 16 1 6 1h14l-2 3-10 2-8 2-24 3h-7l1-7 3-3z" fill="#FEFEFE"/>
<path transform="translate(1217,670)" d="m0 0h1l1 8-8 10-10 8-7 3-4-1 2-6-3-3 9-2 10-8 6-5z" fill="#F5F7F6"/>
<path transform="translate(1157,670)" d="m0 0 1 4v5h2l-2 4-8 7-8 8-9 5-2-1 4-3h2l2-9h-5l12-9z" fill="#FEFEFE"/>
<path transform="translate(1772,673)" d="m0 0 2 3 2 4-7 7-13 9-9 3h-7l4-5 6 1 2-3-6-2v-1l10-3 14-11z" fill="#FEFEFE"/>
<path transform="translate(364,585)" d="m0 0 9 1 3 5 1 6-4 3h-7l-6-3-4-5 1-5z" fill="#7C8F80"/>
<path transform="translate(361,721)" d="m0 0 11 1 4 4 1 9-3 4-7-1-5-5-2-4v-7z" fill="#899A8C"/>
<path transform="translate(372,627)" d="m0 0h7l4 4 1 9-4 2h-8l-6-5-1-7z" fill="#95A598"/>
<path transform="translate(747,360)" d="m0 0 4 2 3 3 12-1 6 9v3h-13l-8-3-3-5-2-6z" fill="#809384"/>
<path transform="translate(376,671)" d="m0 0 6 1 3 5v8l-2 2h-8l-7-6-1-5 4-4z" fill="#809384"/>
<path transform="translate(1297,614)" d="m0 0 5 2 6 8 2 5v20l-4 22-2-1 1-6v-24l-3-15-5-9z" fill="#FEFEFE"/>
<path transform="translate(355,345)" d="m0 0h11l8 7v3h-25l-3 2-1-5 5-5z" fill="#7C9080"/>
<path transform="translate(1723,569)" d="m0 0 2 1-9 14-10 14-11 12-4 2 2-4 3-3 6-11 10-13 6-10z" fill="#FEFEFE"/>
<path transform="translate(1277,692)" d="m0 0 1 2-4 4-6 3v3l8-2 1-3 5-1 1-3 8-2-6 7-10 8-10 4-2-1 1-1 1-7-8-2v-1l12-3 7-4z" fill="#FEFEFE"/>
<path transform="translate(630,338)" d="m0 0h4v2l11-2h7l-1 4-15 5h-15l-2-2 3-4z" fill="#7D9081"/>
<path transform="translate(1330,665)" d="m0 0v3l-1 7-10 4-10 5-5-1 2-5 8-5 12-5z" fill="#FEFEFE"/>
<path transform="translate(343,769)" d="m0 0 14 1 3 3-1 4-5 2h-8l-7-2-1-3z" fill="#92A296"/>
<path transform="translate(661,349)" d="m0 0 7 1 11 7 6 7v3l-4-2-2-2v-3l-5-2-18-4-2 8 3 1-3 1-4-4 1-4 6-5z" fill="#FEFEFE"/>
<path transform="translate(699,338)" d="m0 0 2 1v2l5 2 5 4 8 13 1 6-5-2-5-5-8-14-3-5z" fill="#788C7C"/>
<path transform="translate(1710,613)" d="m0 0v3l-9 11-8 10-7 11-7 19h-4l7-16 11-20 8-10z" fill="#FEFEFE"/>
<path transform="translate(688,288)" d="m0 0h6l2 1v11l-5 3-4-1-3-4 1-7z" fill="#FEFEFE"/>
<path transform="translate(339,621)" d="m0 0 2 4 3 21v29l-2 18h-1v-30z" fill="#FEFEFE"/>
<path transform="translate(1957,523)" d="m0 0v3l-8 11-13 24-2 4h-2l3-11 9-17 8-10z" fill="#FEFEFE"/>
<path transform="translate(1385,665)" d="m0 0 2 3 1 2 3 1-12 11-7 6h-2l1-5 5-3 4-8-2-1z" fill="#FEFEFE"/>
<path transform="translate(305,379)" d="m0 0 1 3-6 9-5 4-8 1v-4l8-6z" fill="#F4F5F4"/>
<path transform="translate(1966,530)" d="m0 0 2 1-3 7-8 12-12 17-3 4h-2l-1 3-4 3-2-1 11-12 16-24z" fill="#FEFEFE"/>
<path transform="translate(1046,497)" d="m0 0h6l5 4 4 1 5 6v2l-5-2-8-3-11-2 2-5z" fill="#FEFEFE"/>
<path transform="translate(221,377)" d="m0 0h2l-1 5-9 14-7 9-1-2 7-12 1-3-3-1v-2l6-3z" fill="#FEFEFE"/>
<path transform="translate(684,314)" d="m0 0h6l4 5 4 10v4l-6 1-3-4v-2h2v-6l-4-5z" fill="#7A8E7E"/>
<path transform="translate(199,436)" d="m0 0h2l-2 9-3 11-5-4v-3l-2-1 6-9z" fill="#FEFEFE"/>
<path transform="translate(1955,566)" d="m0 0v3l-8 10-9 10-9 8v-3l9-10 3-5h2v-2h2v-2l5-3z" fill="#FEFEFE"/>
<path transform="translate(652,477)" d="m0 0 4 2v5l-1 1-3 23-2 1-1-3 1-14z" fill="#FEFEFE"/>
<path transform="translate(256,316)" d="m0 0 11 1-3 2-21 8-7 4v-3l13-8z" fill="#FEFEFE"/>
<path transform="translate(447,381)" d="m0 0 5 1 8 5-3 10-2 2-3-10-5-7z" fill="#FEFEFE"/>
<path transform="translate(1280,633)" d="m0 0 2 1-2 6v9l1 6h-2v-2l-5-1v-9z" fill="#FCFCFC"/>
<path transform="translate(262,371)" d="m0 0 7 6 5 10v3l-11-10-2-3v-5z" fill="#FEFEFE"/>
<path transform="translate(1894,727)" d="m0 0h2l1 5-4 8-8 11h-5l5-5 6-10z" fill="#FEFEFE"/>
<path transform="translate(1093,621)" d="m0 0 2 4 1 9-1 15-3 9h-1l1-13z" fill="#FEFEFE"/>
<path transform="translate(1278,617)" d="m0 0v3l-8 17-2 8h-2l2-12 6-12z" fill="#FEFEFE"/>
<path transform="translate(374,590)" d="m0 0 2 1 1 6-4 3h-7v-2h2l2-6z" fill="#EBEEEC"/>
<path transform="translate(575,328)" d="m0 0h2v3l2 2-3 1v-2l-8 3-5 2-2-2 5-5z" fill="#788C7C"/>
<path transform="translate(992,498)" d="m0 0h7v3l-9 3h-7l1-3z" fill="#849688"/>
<path transform="translate(432,476)" d="m0 0h1v6l-1 5 2 7-4-4-4-7 1-5z" fill="#FBFCFB"/>
<path transform="translate(1293,629)" d="m0 0 2 1 2 12-1 17-2 2v-18z" fill="#FEFEFE"/>
<path transform="translate(361,721)" d="m0 0 9 1-1 3 2 2-8-1-1 5-2-2v-7z" fill="#FEFEFE"/>
<path transform="translate(330,446)" d="m0 0 2 1-6 7-15 8-3 2-3-1 17-10z" fill="#FEFEFE"/>
<path transform="translate(1303,497)" d="m0 0 2 1-7 7-9 11-5 6v-3l8-11z" fill="#FEFEFE"/>
<path transform="translate(348,348)" d="m0 0 12 6-11 1-3 2-1-5z" fill="#FEFEFE"/>
<path transform="translate(1958,499)" d="m0 0m-1 1m-2 1 2 1-18 18v-3l9-10z" fill="#CDD4CF"/>
<path transform="translate(799,359)" d="m0 0 7 1 2 3-2 2-9-1z" fill="#B4BFB6"/>
<path transform="translate(676,318)" d="m0 0 7 3v5l-6-1-3-3z" fill="#788C7C"/>
<path transform="translate(364,585)" d="m0 0h6l-9 6-3 3-2-2 1-5z" fill="#FEFEFE"/>
<path transform="translate(298,354)" d="m0 0 5 4 4 8-3 1-11-6v-1h5l4 2-4-6z" fill="#FEFEFE"/>
<path transform="translate(361,432)" d="m0 0 4 2 16 6-4 1-9-2-5-3z" fill="#FEFEFE"/>
<path transform="translate(370,682)" d="m0 0h10l-1 4 4 1h-8z" fill="#D8DDD9"/>
<path transform="translate(274,355)" d="m0 0 2 3-9 6-4 6-1-2 5-8z" fill="#FEFEFE"/>
<path transform="translate(1875,721)" d="m0 0 1 3-2 16-2 3v-13z" fill="#FEFEFE"/>
<path transform="translate(397,302)" d="m0 0 2 1-5 4-5-1-2-3z" fill="#FEFEFE"/>
<path transform="translate(448,1032)" d="m0 0 2 2v3l-8 1-7-1v-1l13-2z" fill="#FEFEFE"/>
<path transform="translate(175,1030)" d="m0 0h1l1 8h2l1-4 2 5h-6l-2-2v-6z" fill="#FEFEFE"/>
<path transform="translate(374,724)" d="m0 0 2 2 1 9-3 3-3-3 1-2 4 1-2-6z" fill="#FEFEFE"/>
<path transform="translate(372,326)" d="m0 0 5 2 2 2-1 5-4-5z" fill="#FEFEFE"/>
<path transform="translate(945,693)" d="m0 0 4 1-2 4v5h-2l-1-2v-7z" fill="#FEFEFE"/>
<path transform="translate(1312,496)" d="m0 0 4 2 4 8-1 4-4-9-3-3z" fill="#FEFEFE"/>
<path transform="translate(694,335)" d="m0 0h2l-1 2z" fill="#FEFEFE"/>
<path transform="translate(739,321)" d="m0 0 2 2h-2z" fill="#FEFEFE"/>
<path transform="translate(641,301)" d="m0 0 2 1-2 1z" fill="#FEFEFE"/>
<path transform="translate(328,453)" d="m0 0" fill="#FEFEFE"/>
<path transform="translate(964,689)" d="m0 0" fill="#FEFEFE"/>
<path transform="translate(276,390)" d="m0 0" fill="#FEFEFE"/>
</svg>
